<svg width="73" height="36" viewBox="0 0 73 36" fill="none" xmlns="http://www.w3.org/2000/svg">
<path d="M29.3232 31.3085V23.6369V23.238C29.3232 22.4569 29.6279 21.7067 30.1724 21.1467L48.8781 1.90865C49.4429 1.32774 50.2187 1 51.029 1H55.5658C57.2227 1 58.5658 2.34315 58.5658 4V14.1692C58.5658 15.826 59.9089 17.1692 61.5658 17.1692H68.9996C70.6565 17.1692 71.9996 18.5123 71.9996 20.1692V26.5445V31.3085C71.9996 32.9654 70.6565 34.3085 68.9996 34.3085H62.2487C60.5918 34.3085 59.2487 32.9654 59.2487 31.3085V23.3179C59.2487 22.6011 58.6676 22.02 57.9508 22.02C57.6148 22.02 57.292 22.1502 57.0501 22.3833L45.5477 33.4687C44.9886 34.0075 44.2424 34.3085 43.4659 34.3085H32.3232C30.6664 34.3085 29.3232 32.9654 29.3232 31.3085Z" fill="black" stroke="white" stroke-width="2"/>
<path d="M1.56641 31.3085V23.6369V23.2677C1.56641 22.469 1.88489 21.7033 2.45129 21.1402L21.8319 1.87249C22.394 1.31367 23.1544 1 23.947 1H28.8173C30.4742 1 31.8173 2.34315 31.8173 4V14.1692C31.8173 15.8261 33.1605 17.1692 34.8173 17.1692H40.2021C41.8589 17.1692 43.2021 18.5123 43.2021 20.1692V25.7389V31.3085C43.2021 32.9654 41.8589 34.3085 40.2021 34.3085H32.2151C30.5582 34.3085 29.2151 32.9654 29.2151 31.3085V24.0925C29.2151 22.9479 28.2872 22.02 27.1425 22.02C26.5949 22.02 26.0696 22.2367 25.6813 22.6227L14.8046 33.4361C14.2425 33.9949 13.4821 34.3085 12.6895 34.3085H4.56641C2.90955 34.3085 1.56641 32.9654 1.56641 31.3085Z" fill="black" stroke="white" stroke-width="2"/>
</svg>
